<svg xmlns="http://www.w3.org/2000/svg" width="280" height="138.061" viewBox="0 0 280 138.061"><defs><style>.a{fill:#e50000;}.b{isolation:isolate;}</style></defs><path class="a" d="M412.6,338.14h0a10.178,10.178,0,0,1-3.655-.688l-75.062-28.808h3.555l1.083-4.758H324.09l1.354-5.879h13.228l1.083-4.681H326.529l1.352-5.841h14.351l1.082-4.757H323.7l-4.649,20.226-21.435-8.226a10.314,10.314,0,0,1-2.459-1.347,9.923,9.923,0,0,1-1.9-1.853,10.259,10.259,0,0,1-1.546-9.758,9.915,9.915,0,0,1,1.232-2.348,10.314,10.314,0,0,1,1.922-2.041l92.673-75.034a9.986,9.986,0,0,1,6.341-2.27,10.292,10.292,0,0,1,6.48,2.308,9.939,9.939,0,0,1,2.313,2.7,10.169,10.169,0,0,1,1.26,3.559L422.593,326.4a10,10,0,0,1-2.28,8.148,10.385,10.385,0,0,1-3.428,2.624A9.933,9.933,0,0,1,412.6,338.14ZM370.856,302.5l-5.067,1.431a5.83,5.83,0,0,0,1.089,2.283,6.494,6.494,0,0,0,2.028,1.663,11.908,11.908,0,0,0,5.743,1.352,12.417,12.417,0,0,0,3.326-.421,8.817,8.817,0,0,0,2.708-1.261,5.638,5.638,0,0,0,1.8-1.987,5.542,5.542,0,0,0,.6-2.6,4.924,4.924,0,0,0-1.286-3.424,8.644,8.644,0,0,0-3.858-2.224l-2.36-.735a4.659,4.659,0,0,1-1.625-.822,1.408,1.408,0,0,1-.542-1.074,1.744,1.744,0,0,1,.658-1.373,3.42,3.42,0,0,1,2.205-.563,4.985,4.985,0,0,1,2.8.735,2.818,2.818,0,0,1,1.3,1.934l4.371-1.314a5.557,5.557,0,0,0-.953-2.117,7.076,7.076,0,0,0-1.851-1.711,8.793,8.793,0,0,0-2.568-1.132,12.063,12.063,0,0,0-3.1-.376,11.119,11.119,0,0,0-3.264.445,7.271,7.271,0,0,0-2.519,1.334,5.664,5.664,0,0,0-2.147,4.565,5.112,5.112,0,0,0,1.112,3.356,6.769,6.769,0,0,0,3.336,2.021l3.791,1.2c1.027.309,1.547.83,1.547,1.547a1.717,1.717,0,0,1-.87,1.412,3.923,3.923,0,0,1-2.263.6,5.343,5.343,0,0,1-2.688-.7,2.819,2.819,0,0,1-1.45-2.05h0Zm27.23-13.615a11.457,11.457,0,0,0-7.677,2.823,11.7,11.7,0,0,0-2.666,3.24,12.585,12.585,0,0,0-1.378,4.07,9.385,9.385,0,0,0,.174,4.047,7.588,7.588,0,0,0,1.915,3.244,9.142,9.142,0,0,0,3.2,2.133,11,11,0,0,0,4.033.711,11.55,11.55,0,0,0,4.042-.706,12.062,12.062,0,0,0,6.188-5.357,12.669,12.669,0,0,0,1.373-4.072,9.336,9.336,0,0,0-.169-4.022,7.673,7.673,0,0,0-1.9-3.25,9.1,9.1,0,0,0-3.167-2.146,10.63,10.63,0,0,0-3.969-.717Zm-51.367.463-4.448,19.3h5.107l1.973-8.548a12.027,12.027,0,0,1,2.282-5.164,5.037,5.037,0,0,1,1.663-1.291,4.713,4.713,0,0,1,2.012-.43,3.33,3.33,0,0,1,2.843,1.218,3.935,3.935,0,0,1,.445,3.3l-1.878,8.149a2.253,2.253,0,0,0,2.2,2.758h2.274l2.476-10.675a10.111,10.111,0,0,0,.2-3.544,7.225,7.225,0,0,0-1.093-2.974,5.5,5.5,0,0,0-2.291-2.016,7.906,7.906,0,0,0-3.394-.673,8.088,8.088,0,0,0-3.162.6,7.244,7.244,0,0,0-2.524,1.8l.1-.436a1.127,1.127,0,0,0-1.1-1.384Zm49.345-7a2.251,2.251,0,0,0-2.2,1.764l-.536,2.414h10.493a2.25,2.25,0,0,0,2.2-1.764l.536-2.413Zm-.106,22.436a5.007,5.007,0,0,1-2.012-.4,4.744,4.744,0,0,1-1.625-1.189,4.167,4.167,0,0,1-.967-1.838,5.916,5.916,0,0,1-.038-2.34,7.061,7.061,0,0,1,.8-2.339,6.542,6.542,0,0,1,1.557-1.838,6.447,6.447,0,0,1,4.139-1.586,4.683,4.683,0,0,1,1.948.4,4.738,4.738,0,0,1,1.591,1.2,4.248,4.248,0,0,1,.952,1.843,5.872,5.872,0,0,1,.033,2.316,7.087,7.087,0,0,1-.8,2.316A6.659,6.659,0,0,1,400,303.172a6.231,6.231,0,0,1-4.043,1.605Z" transform="translate(-291.111 -200.079)"/><g class="b" transform="translate(139.061 89.975)"><g class="b"><path class="a" d="M669.732,439.808h2.32l8.079,18.877h-2.986l-1.893-4.666h-8.985l-1.866,4.666h-2.986Zm4.586,11.972-3.519-8.666h-.053l-3.573,8.666Z" transform="translate(-661.413 -439.754)"/><path class="a" d="M727.352,469.059h-2.4v-1.946H724.9a3.538,3.538,0,0,1-1.573,1.64,5.212,5.212,0,0,1-2.586.626,5.445,5.445,0,0,1-1.759-.28,3.953,3.953,0,0,1-1.453-.867,4.171,4.171,0,0,1-1-1.507,5.757,5.757,0,0,1-.373-2.173v-8.132h2.4v7.466a4.218,4.218,0,0,0,.24,1.507,2.744,2.744,0,0,0,.64,1.013,2.4,2.4,0,0,0,.92.56,3.378,3.378,0,0,0,1.08.173,3.916,3.916,0,0,0,1.386-.24,2.892,2.892,0,0,0,1.12-.76,3.6,3.6,0,0,0,.746-1.32,6.007,6.007,0,0,0,.267-1.893v-6.506h2.4Z" transform="translate(-695.596 -450.128)"/><path class="a" d="M759.342,452.6H755.9v5.733q0,.533.026,1.053a2.761,2.761,0,0,0,.2.934,1.51,1.51,0,0,0,.533.667,1.822,1.822,0,0,0,1.053.253,5.033,5.033,0,0,0,.88-.08,2.54,2.54,0,0,0,.827-.293v2.186a3.137,3.137,0,0,1-1.107.333,8.34,8.34,0,0,1-1.053.093,4.826,4.826,0,0,1-2.146-.387,2.631,2.631,0,0,1-1.12-1,3.224,3.224,0,0,1-.427-1.373q-.067-.761-.067-1.533V452.6H750.73v-2.08H753.5v-3.546h2.4v3.546h3.439Z" transform="translate(-717.188 -444.232)"/><path class="a" d="M780.267,462.208a6.442,6.442,0,0,1,.52-2.586,6.744,6.744,0,0,1,1.426-2.106,6.79,6.79,0,0,1,9.545,0,6.739,6.739,0,0,1,1.427,2.106,6.436,6.436,0,0,1,.52,2.586,6.57,6.57,0,0,1-1.947,4.706,6.761,6.761,0,0,1-2.133,1.414,6.962,6.962,0,0,1-5.279,0,6.764,6.764,0,0,1-2.133-1.414,6.569,6.569,0,0,1-1.946-4.706Zm2.56,0a5.19,5.19,0,0,0,.293,1.773,3.993,3.993,0,0,0,.827,1.386,3.823,3.823,0,0,0,1.307.907,4.674,4.674,0,0,0,3.466,0,3.832,3.832,0,0,0,1.307-.907,4,4,0,0,0,.826-1.386,5.507,5.507,0,0,0,0-3.547,4.009,4.009,0,0,0-.826-1.386,3.831,3.831,0,0,0-1.307-.907,4.669,4.669,0,0,0-3.466,0,3.822,3.822,0,0,0-1.307.907,4,4,0,0,0-.827,1.386A5.191,5.191,0,0,0,782.827,462.208Z" transform="translate(-735.633 -449.596)"/><path class="a" d="M824.073,455.889h2.24v1.973h.053a2.082,2.082,0,0,1,.413-.667,4.243,4.243,0,0,1,.854-.76,5.248,5.248,0,0,1,1.226-.613,4.59,4.59,0,0,1,1.56-.254,4.479,4.479,0,0,1,2.373.587,4.367,4.367,0,0,1,1.573,1.76,4.043,4.043,0,0,1,1.733-1.76,4.843,4.843,0,0,1,2.266-.587,5.237,5.237,0,0,1,2.4.48,3.865,3.865,0,0,1,1.467,1.266,4.841,4.841,0,0,1,.733,1.786,10.512,10.512,0,0,1,.2,2.066v7.359h-2.4v-7.039a10.04,10.04,0,0,0-.093-1.386,3.22,3.22,0,0,0-.387-1.173,2.2,2.2,0,0,0-.826-.813,3.413,3.413,0,0,0-3.893.76,4.686,4.686,0,0,0-.747,2.747v6.905h-2.4v-6.613a13.431,13.431,0,0,0-.093-1.653,3.887,3.887,0,0,0-.373-1.293,2.061,2.061,0,0,0-.8-.853,2.751,2.751,0,0,0-1.4-.307,3.16,3.16,0,0,0-1.24.254,2.937,2.937,0,0,0-1.053.76,3.68,3.68,0,0,0-.72,1.293,5.776,5.776,0,0,0-.267,1.853v6.559h-2.4Z" transform="translate(-762.989 -449.596)"/><path class="a" d="M883.6,457.435a6.683,6.683,0,0,1,2.346-1.4,8.028,8.028,0,0,1,2.666-.467,7.319,7.319,0,0,1,2.386.347,4.638,4.638,0,0,1,1.64.934,3.686,3.686,0,0,1,.947,1.346,4.211,4.211,0,0,1,.306,1.586v6.453q0,.667.027,1.226t.08,1.067h-2.133q-.08-.96-.08-1.92h-.053a4.591,4.591,0,0,1-1.893,1.733,5.968,5.968,0,0,1-2.533.507,5.81,5.81,0,0,1-1.679-.24,4.087,4.087,0,0,1-1.4-.72,3.429,3.429,0,0,1-.947-1.186,4.095,4.095,0,0,1,.2-3.693,4.135,4.135,0,0,1,1.493-1.346,7.2,7.2,0,0,1,2.213-.747,15.375,15.375,0,0,1,2.706-.227h1.76v-.533a2.64,2.64,0,0,0-.187-.96,2.6,2.6,0,0,0-.56-.867,2.674,2.674,0,0,0-.933-.613,3.551,3.551,0,0,0-1.333-.226,4.924,4.924,0,0,0-1.213.133,5.345,5.345,0,0,0-.947.333,4.13,4.13,0,0,0-.773.466q-.347.267-.667.507Zm6.772,5.013a16.877,16.877,0,0,0-1.746.094,6.848,6.848,0,0,0-1.626.36,3.139,3.139,0,0,0-1.2.747,1.688,1.688,0,0,0-.466,1.227,1.737,1.737,0,0,0,.733,1.573,3.587,3.587,0,0,0,1.987.48,3.846,3.846,0,0,0,1.68-.333,3.161,3.161,0,0,0,1.12-.867,3.372,3.372,0,0,0,.613-1.186,4.712,4.712,0,0,0,.187-1.293v-.8Z" transform="translate(-799.743 -449.596)"/><path class="a" d="M925.127,452.6h-3.439v5.733q0,.533.027,1.053a2.754,2.754,0,0,0,.2.934,1.511,1.511,0,0,0,.533.667,1.822,1.822,0,0,0,1.053.253,5.027,5.027,0,0,0,.88-.08,2.532,2.532,0,0,0,.827-.293v2.186a3.135,3.135,0,0,1-1.106.333,8.343,8.343,0,0,1-1.053.093,4.827,4.827,0,0,1-2.147-.387,2.633,2.633,0,0,1-1.12-1,3.222,3.222,0,0,1-.427-1.373q-.067-.761-.067-1.533V452.6h-2.773v-2.08h2.773v-3.546h2.4v3.546h3.439Z" transform="translate(-820.715 -444.232)"/><path class="a" d="M946.688,441.425a1.776,1.776,0,1,1,.52,1.239A1.693,1.693,0,0,1,946.688,441.425Zm.56,4.532h2.4V458.6h-2.4Z" transform="translate(-839.557 -439.665)"/><path class="a" d="M963.089,462.208a6.436,6.436,0,0,1,.52-2.586,6.733,6.733,0,0,1,1.426-2.106,6.789,6.789,0,0,1,9.545,0,6.737,6.737,0,0,1,1.427,2.106,6.436,6.436,0,0,1,.52,2.586,6.57,6.57,0,0,1-1.947,4.706,6.756,6.756,0,0,1-4.773,1.933,6.69,6.69,0,0,1-2.639-.52,6.761,6.761,0,0,1-2.133-1.414,6.574,6.574,0,0,1-1.946-4.706Zm2.56,0a5.181,5.181,0,0,0,.293,1.773,3.984,3.984,0,0,0,.827,1.386,3.82,3.82,0,0,0,1.306.907,4.675,4.675,0,0,0,3.466,0,3.834,3.834,0,0,0,1.307-.907,4,4,0,0,0,.826-1.386,5.5,5.5,0,0,0,0-3.547,4.008,4.008,0,0,0-.826-1.386,3.834,3.834,0,0,0-1.307-.907,4.67,4.67,0,0,0-3.466,0,3.819,3.819,0,0,0-1.306.907,3.994,3.994,0,0,0-.827,1.386A5.183,5.183,0,0,0,965.648,462.208Z" transform="translate(-849.799 -449.596)"/><path class="a" d="M1006.9,455.889h2.4v1.946h.054a3.539,3.539,0,0,1,1.573-1.64,5.213,5.213,0,0,1,2.587-.626,5.488,5.488,0,0,1,1.746.28,3.958,3.958,0,0,1,1.467.867,4.19,4.19,0,0,1,1,1.507,5.768,5.768,0,0,1,.373,2.173v8.132h-2.4v-7.466a4.227,4.227,0,0,0-.24-1.506,2.763,2.763,0,0,0-.64-1.014,2.408,2.408,0,0,0-.92-.56,3.4,3.4,0,0,0-1.08-.174,3.916,3.916,0,0,0-1.386.24,2.9,2.9,0,0,0-1.12.76,3.589,3.589,0,0,0-.746,1.32,5.984,5.984,0,0,0-.267,1.893v6.506h-2.4Z" transform="translate(-877.155 -449.596)"/></g></g></svg>