<svg xmlns="http://www.w3.org/2000/svg" width="200" height="99.031" viewBox="0 0 200 99.031"><defs><style>.a{fill:#e50000;}.b{isolation:isolate;}</style></defs><path class="a" d="M377.889,299.11h0a7.243,7.243,0,0,1-2.611-.493l-53.616-20.664H324.2l.774-3.413H314.667l.967-4.217h9.448l.774-3.357h-9.447l.966-4.19h10.251l.773-3.412H314.392l-3.321,14.508-15.311-5.9A7.355,7.355,0,0,1,294,267a7.1,7.1,0,0,1-1.355-1.329,7.383,7.383,0,0,1-1.1-7,7.123,7.123,0,0,1,.88-1.684,7.387,7.387,0,0,1,1.373-1.464l66.195-53.821a7.114,7.114,0,0,1,4.529-1.628,7.333,7.333,0,0,1,4.629,1.656,7.122,7.122,0,0,1,1.652,1.935,7.315,7.315,0,0,1,.9,2.553l13.323,84.466a7.262,7.262,0,0,1-.2,3.2,7.178,7.178,0,0,1-1.433,2.647,7.42,7.42,0,0,1-2.449,1.882A7.07,7.07,0,0,1,377.889,299.11Zm-29.818-25.568-3.619,1.027a4.188,4.188,0,0,0,.778,1.637,4.641,4.641,0,0,0,1.448,1.193,8.475,8.475,0,0,0,4.1.97,8.833,8.833,0,0,0,2.376-.3,6.287,6.287,0,0,0,1.934-.9,4.038,4.038,0,0,0,1.285-1.426,3.989,3.989,0,0,0,.429-1.862,3.54,3.54,0,0,0-.919-2.456,6.169,6.169,0,0,0-2.756-1.6l-1.686-.527a3.323,3.323,0,0,1-1.16-.59,1.012,1.012,0,0,1-.387-.77,1.253,1.253,0,0,1,.47-.985,2.434,2.434,0,0,1,1.575-.4,3.55,3.55,0,0,1,2,.527,2.022,2.022,0,0,1,.926,1.388l3.122-.943a4,4,0,0,0-.681-1.519,5.06,5.06,0,0,0-1.322-1.228,6.268,6.268,0,0,0-1.834-.812,8.581,8.581,0,0,0-2.214-.269,7.908,7.908,0,0,0-2.331.319,5.186,5.186,0,0,0-1.8.957,4.07,4.07,0,0,0-1.534,3.274,3.677,3.677,0,0,0,.795,2.407,4.832,4.832,0,0,0,2.383,1.449l2.708.86c.733.222,1.105.6,1.105,1.11a1.232,1.232,0,0,1-.621,1.013,2.793,2.793,0,0,1-1.617.431,3.8,3.8,0,0,1-1.92-.5,2.022,2.022,0,0,1-1.036-1.47h0Zm19.45-9.766a8.472,8.472,0,0,0-7.388,4.349,9.054,9.054,0,0,0-.984,2.919,6.759,6.759,0,0,0,.124,2.9,5.447,5.447,0,0,0,1.368,2.327,6.526,6.526,0,0,0,2.286,1.53,7.827,7.827,0,0,0,2.88.51,8.217,8.217,0,0,0,2.887-.506,8.627,8.627,0,0,0,4.42-3.843,9.112,9.112,0,0,0,.981-2.921,6.724,6.724,0,0,0-.121-2.885,5.508,5.508,0,0,0-1.357-2.331,6.5,6.5,0,0,0-2.262-1.539,7.564,7.564,0,0,0-2.835-.514Zm-36.69.332-3.177,13.846H331.3l1.409-6.131a8.645,8.645,0,0,1,1.63-3.7,3.6,3.6,0,0,1,1.188-.926,3.355,3.355,0,0,1,1.437-.309,2.374,2.374,0,0,1,2.031.874,2.833,2.833,0,0,1,.318,2.371l-1.341,5.845a1.614,1.614,0,0,0,1.569,1.979h1.624l1.768-7.657a7.285,7.285,0,0,0,.145-2.542,5.2,5.2,0,0,0-.781-2.134,3.933,3.933,0,0,0-1.636-1.446,5.627,5.627,0,0,0-2.425-.482,5.756,5.756,0,0,0-2.259.431,5.175,5.175,0,0,0-1.8,1.291l.073-.312a.808.808,0,0,0-.783-.993Zm35.247-5.022a1.61,1.61,0,0,0-1.57,1.265l-.383,1.731h7.5a1.609,1.609,0,0,0,1.57-1.265l.383-1.731ZM366,275.179a3.564,3.564,0,0,1-1.437-.284,3.389,3.389,0,0,1-1.16-.853,2.992,2.992,0,0,1-.691-1.318,4.261,4.261,0,0,1-.027-1.679,5.077,5.077,0,0,1,.573-1.678,4.686,4.686,0,0,1,1.112-1.318,4.593,4.593,0,0,1,2.956-1.138,3.335,3.335,0,0,1,1.392.288,3.386,3.386,0,0,1,1.137.862,3.052,3.052,0,0,1,.68,1.322,4.23,4.23,0,0,1,.024,1.661,5.094,5.094,0,0,1-.569,1.661,4.771,4.771,0,0,1-1.1,1.321A4.441,4.441,0,0,1,366,275.178Z" transform="translate(-291.111 -200.079)"/><g class="b" transform="translate(99.329 64.539)"><g class="b"><path class="a" d="M667.355,439.808h1.657l5.771,13.541h-2.133L671.3,450h-6.418l-1.333,3.347h-2.133Zm3.276,8.588-2.514-6.216h-.038l-2.552,6.216Z" transform="translate(-661.413 -439.769)"/><path class="a" d="M724.152,465.486h-1.714v-1.4H722.4a2.532,2.532,0,0,1-1.124,1.176,3.71,3.71,0,0,1-1.847.449,3.875,3.875,0,0,1-1.257-.2,2.818,2.818,0,0,1-1.038-.622,2.994,2.994,0,0,1-.714-1.081,4.143,4.143,0,0,1-.267-1.559v-5.833h1.714v5.355a3.038,3.038,0,0,0,.172,1.081,1.969,1.969,0,0,0,.457.727,1.716,1.716,0,0,0,.657.4,2.406,2.406,0,0,0,.771.124,2.786,2.786,0,0,0,.99-.172,2.067,2.067,0,0,0,.8-.545,2.587,2.587,0,0,0,.533-.947,4.325,4.325,0,0,0,.191-1.358v-4.667h1.714Z" transform="translate(-701.47 -451.907)"/><path class="a" d="M756.881,451.014h-2.456v4.112c0,.255.006.506.019.755a1.985,1.985,0,0,0,.143.67,1.084,1.084,0,0,0,.381.478,1.3,1.3,0,0,0,.752.181,3.569,3.569,0,0,0,.629-.057,1.809,1.809,0,0,0,.59-.21v1.568a2.237,2.237,0,0,1-.791.239,5.949,5.949,0,0,1-.752.067,3.431,3.431,0,0,1-1.533-.278,1.882,1.882,0,0,1-.8-.717,2.318,2.318,0,0,1-.3-.985q-.048-.546-.048-1.1v-4.724H750.73v-1.492h1.981v-2.543h1.714v2.543h2.456Z" transform="translate(-726.772 -445.009)"/><path class="a" d="M780.267,460.331a4.636,4.636,0,0,1,.371-1.855,4.838,4.838,0,0,1,1.019-1.511,4.837,4.837,0,0,1,6.818,0,4.839,4.839,0,0,1,1.019,1.511,4.632,4.632,0,0,1,.371,1.855,4.722,4.722,0,0,1-1.39,3.375,4.824,4.824,0,0,1-1.524,1.014,4.952,4.952,0,0,1-3.771,0,4.827,4.827,0,0,1-1.524-1.014,4.725,4.725,0,0,1-1.39-3.375Zm1.828,0a3.739,3.739,0,0,0,.209,1.272,2.864,2.864,0,0,0,.591.995,2.732,2.732,0,0,0,.933.65,3.328,3.328,0,0,0,2.476,0,2.739,2.739,0,0,0,.933-.65,2.868,2.868,0,0,0,.59-.995,3.966,3.966,0,0,0,0-2.544,2.877,2.877,0,0,0-.59-.994,2.735,2.735,0,0,0-.933-.65,3.321,3.321,0,0,0-2.476,0,2.728,2.728,0,0,0-.933.65,2.873,2.873,0,0,0-.591.994A3.74,3.74,0,0,0,782.1,460.331Z" transform="translate(-748.386 -451.285)"/><path class="a" d="M824.073,455.8h1.6v1.415h.038a1.5,1.5,0,0,1,.295-.478,3.035,3.035,0,0,1,.61-.545,3.74,3.74,0,0,1,.876-.44,3.266,3.266,0,0,1,1.114-.182,3.19,3.19,0,0,1,1.7.421,3.128,3.128,0,0,1,1.124,1.262,2.9,2.9,0,0,1,1.238-1.262,3.449,3.449,0,0,1,1.619-.421,3.727,3.727,0,0,1,1.714.345,2.765,2.765,0,0,1,1.048.908,3.482,3.482,0,0,1,.523,1.281,7.575,7.575,0,0,1,.143,1.482v5.279h-1.714v-5.049a7.233,7.233,0,0,0-.066-.994,2.316,2.316,0,0,0-.276-.842,1.578,1.578,0,0,0-.59-.583,2.43,2.43,0,0,0-2.781.545,3.371,3.371,0,0,0-.534,1.97v4.953h-1.714v-4.743a9.654,9.654,0,0,0-.067-1.186,2.791,2.791,0,0,0-.267-.927,1.475,1.475,0,0,0-.571-.612,1.959,1.959,0,0,0-1-.22,2.25,2.25,0,0,0-.885.182,2.1,2.1,0,0,0-.752.545,2.642,2.642,0,0,0-.514.928,4.159,4.159,0,0,0-.19,1.329v4.7h-1.714Z" transform="translate(-780.441 -451.285)"/><path class="a" d="M883.407,456.908a4.768,4.768,0,0,1,1.676-1,5.712,5.712,0,0,1,1.9-.335,5.207,5.207,0,0,1,1.7.249,3.312,3.312,0,0,1,1.171.67,2.648,2.648,0,0,1,.676.966,3.029,3.029,0,0,1,.219,1.138v4.628q0,.478.019.88t.057.765h-1.524q-.057-.688-.057-1.377h-.038a3.282,3.282,0,0,1-1.352,1.243,4.245,4.245,0,0,1-1.809.364,4.139,4.139,0,0,1-1.2-.172,2.916,2.916,0,0,1-1-.516,2.459,2.459,0,0,1-.676-.851,2.649,2.649,0,0,1-.247-1.176,2.622,2.622,0,0,1,.391-1.473,2.957,2.957,0,0,1,1.066-.966,5.131,5.131,0,0,1,1.581-.536,10.943,10.943,0,0,1,1.933-.163h1.257v-.383a1.906,1.906,0,0,0-.133-.688,1.86,1.86,0,0,0-.4-.622,1.91,1.91,0,0,0-.666-.44,2.528,2.528,0,0,0-.953-.162,3.505,3.505,0,0,0-.866.1,3.819,3.819,0,0,0-.676.239,2.956,2.956,0,0,0-.552.335q-.248.191-.476.364Zm4.837,3.6a12.031,12.031,0,0,0-1.247.067,4.87,4.87,0,0,0-1.162.258,2.241,2.241,0,0,0-.857.535,1.214,1.214,0,0,0-.333.88,1.248,1.248,0,0,0,.524,1.128,2.553,2.553,0,0,0,1.419.344,2.738,2.738,0,0,0,1.2-.239,2.259,2.259,0,0,0,.8-.622,2.424,2.424,0,0,0,.438-.851,3.4,3.4,0,0,0,.133-.928V460.5Z" transform="translate(-823.511 -451.285)"/><path class="a" d="M922.666,451.014H920.21v4.112c0,.255.006.506.019.755a1.982,1.982,0,0,0,.143.67,1.083,1.083,0,0,0,.381.478,1.3,1.3,0,0,0,.752.181,3.564,3.564,0,0,0,.628-.057,1.806,1.806,0,0,0,.591-.21v1.568a2.236,2.236,0,0,1-.79.239,5.953,5.953,0,0,1-.752.067,3.433,3.433,0,0,1-1.533-.278,1.884,1.884,0,0,1-.8-.717,2.318,2.318,0,0,1-.3-.985q-.048-.546-.048-1.1v-4.724h-1.98v-1.492h1.98v-2.543h1.714v2.543h2.457Z" transform="translate(-848.087 -445.009)"/><path class="a" d="M946.688,440.928a1.257,1.257,0,1,1,2.142.889,1.257,1.257,0,0,1-2.142-.889Zm.4,3.251H948.8v9.065h-1.714Z" transform="translate(-870.166 -439.665)"/><path class="a" d="M963.089,460.331a4.634,4.634,0,0,1,.372-1.855,4.831,4.831,0,0,1,1.018-1.511,4.836,4.836,0,0,1,6.818,0,4.83,4.83,0,0,1,1.019,1.511,4.632,4.632,0,0,1,.372,1.855,4.724,4.724,0,0,1-1.391,3.375,4.823,4.823,0,0,1-1.523,1.014,4.953,4.953,0,0,1-3.771,0,4.828,4.828,0,0,1-1.524-1.014,4.727,4.727,0,0,1-1.39-3.375Zm1.828,0a3.732,3.732,0,0,0,.209,1.272,2.862,2.862,0,0,0,.59.995,2.732,2.732,0,0,0,.933.65,3.328,3.328,0,0,0,2.476,0,2.741,2.741,0,0,0,.933-.65,2.869,2.869,0,0,0,.59-.995,3.962,3.962,0,0,0,0-2.544,2.878,2.878,0,0,0-.59-.994,2.737,2.737,0,0,0-.933-.65,3.321,3.321,0,0,0-2.476,0,2.728,2.728,0,0,0-.933.65,2.871,2.871,0,0,0-.59.994A3.733,3.733,0,0,0,964.917,460.331Z" transform="translate(-882.168 -451.285)"/><path class="a" d="M1006.9,455.8h1.714v1.4h.038a2.534,2.534,0,0,1,1.123-1.176,3.711,3.711,0,0,1,1.848-.449,3.9,3.9,0,0,1,1.247.2,2.825,2.825,0,0,1,1.048.622,3.006,3.006,0,0,1,.714,1.081,4.154,4.154,0,0,1,.266,1.559v5.833h-1.714v-5.355a3.042,3.042,0,0,0-.171-1.08,1.985,1.985,0,0,0-.457-.727,1.72,1.72,0,0,0-.657-.4,2.419,2.419,0,0,0-.771-.124,2.785,2.785,0,0,0-.99.172,2.069,2.069,0,0,0-.8.545,2.574,2.574,0,0,0-.533.947,4.307,4.307,0,0,0-.191,1.358v4.667H1006.9Z" transform="translate(-914.224 -451.285)"/></g></g></svg>